<svg id="Effect" enable-background="new 0 0 36 36" height="512" viewBox="0 0 36 36" width="512" xmlns="http://www.w3.org/2000/svg"><g><path d="m4.167 27.623c0-6.917-3.583-11.667-3.583-15s1.916-10.333 17.249-10.333 17.583 9.417 17.583 13.083c.001 17.167-31.249 24.5-31.249 12.25z" fill="#efefef"/></g><g><path d="m20.25 9.75h-2v1c0 .552-.448 1-1 1h-5.5c-.552 0-1-.448-1-1v-1h-2c-1.1 0-2 .9-2 2v12.5c0 1.1.9 2 2 2h11.5c1.1 0 2-.9 2-2v-12.5c0-1.1-.9-2-2-2z" fill="#f3f3f1"/></g><g><path d="m18.25 8.75v2c0 .552-.448 1-1 1h-5.5c-.552 0-1-.448-1-1v-2h1.75c0-1.1.9-2 2-2s2 .9 2 2z" fill="#2fdf84"/></g><g><path d="m27.741 24.204c.043-.23.075-.463.075-.704s-.033-.474-.075-.704l1.298-.88c.212-.144.274-.415.143-.629l-.81-1.324c-.13-.213-.411-.298-.649-.197l-1.466.624c-.38-.3-.808-.54-1.282-.703l-.16-1.506c-.026-.245-.244-.431-.505-.431h-1.62c-.261 0-.479.187-.505.431l-.16 1.506c-.474.163-.903.403-1.282.703l-1.466-.625c-.238-.101-.518-.016-.649.197l-.81 1.324c-.13.213-.068.485.143.629l1.298.88c-.043.23-.075.463-.075.704s.033.474.075.704l-1.298.88c-.212.144-.274.415-.143.629l.81 1.324c.13.213.411.298.649.197l1.466-.624c.38.3.808.54 1.282.703l.16 1.506c.026.245.244.431.505.431h1.62c.261 0 .479-.187.505-.431l.16-1.506c.474-.163.903-.403 1.282-.703l1.466.624c.238.101.518.016.649-.197l.81-1.324c.13-.213.068-.485-.143-.629z" fill="#2fdf84"/></g><g><path d="m20.5 10.75v-.975c-.083-.011-.164-.025-.25-.025h-2v1c0 .552-.448 1-1 1h2.25c.552 0 1-.448 1-1z" fill="#d5dbe1"/></g><g><path d="m9 24.25v-12.5c0-1.014.768-1.849 1.75-1.975v-.025h-2c-1.1 0-2 .9-2 2v12.5c0 1.1.9 2 2 2h2.25c-1.1 0-2-.9-2-2z" fill="#d5dbe1"/></g><g><path d="m13 10.75v-2h1.75c0-.683.348-1.289.875-1.65-.321-.22-.708-.35-1.125-.35-1.1 0-2 .9-2 2h-1.75v2c0 .552.448 1 1 1h2.25c-.552 0-1-.448-1-1z" fill="#00b871"/></g><g><path d="m22.993 20.39c.38-.3.808-.54 1.282-.703l.16-1.506c.014-.133.087-.245.19-.323-.087-.066-.195-.109-.315-.109h-1.62c-.261 0-.479.187-.505.431l-.16 1.506c-.117.04-.223.099-.335.149z" fill="#00b871"/></g><g><path d="m20.068 25.713c-.13-.213-.068-.485.143-.629l1.298-.88c-.043-.23-.075-.463-.075-.704s.033-.474.075-.704l-1.298-.88c-.211-.144-.273-.416-.143-.629l.575-.939-1.366-.582c-.238-.101-.518-.016-.649.197l-.81 1.324c-.13.213-.068.485.143.629l1.298.88c-.043.23-.075.463-.075.704s.033.474.075.704l-1.298.88c-.212.144-.274.415-.143.629l.81 1.324c.13.213.411.298.649.197l1.366-.582z" fill="#00b871"/></g><g><path d="m28.507 20.39.1-.043-.235-.385c-.13-.213-.411-.298-.649-.197l-.164.07c.34.151.662.33.948.555z" fill="#00b871"/></g><g><path d="m28.507 26.61c-.286.226-.608.404-.947.555l.164.07c.238.101.518.016.649-.197l.235-.385z" fill="#00b871"/></g><g><path d="m24.435 28.818-.16-1.505c-.474-.163-.903-.403-1.282-.703l-1.303.555c.112.05.218.108.335.149l.16 1.505c.026.245.244.432.505.432h1.62c.12 0 .228-.043.315-.109-.103-.079-.176-.191-.19-.324z" fill="#00b871"/></g><g><path d="m23.5 26c-1.379 0-2.5-1.121-2.5-2.5s1.121-2.5 2.5-2.5 2.5 1.121 2.5 2.5-1.121 2.5-2.5 2.5zm0-3.5c-.552 0-1 .448-1 1s.448 1 1 1 1-.448 1-1-.448-1-1-1z"/></g><g><path d="m24.31 30h-1.62c-.646 0-1.184-.474-1.252-1.102l-.111-1.059c-.235-.106-.462-.232-.679-.375l-1.078.46c-.582.245-1.259.031-1.581-.495l-.811-1.325c-.338-.551-.181-1.271.36-1.64l.911-.618c-.01-.11-.017-.228-.017-.347 0-.12.007-.236.017-.347l-.91-.618c-.542-.367-.7-1.088-.36-1.641l.809-1.323c.324-.526 1.004-.74 1.581-.496l1.079.46c.217-.143.443-.269.679-.375l.111-1.058c.069-.627.607-1.101 1.252-1.101h1.619c.646 0 1.184.474 1.252 1.102l.111 1.059c.235.106.462.232.679.375l1.078-.46c.58-.245 1.258-.032 1.581.495l.811 1.325c.339.552.181 1.272-.362 1.641l-.909.617c.01.11.017.227.017.347 0 .119-.007.236-.017.347l.909.616c.543.37.7 1.091.361 1.643l-.809 1.323c-.324.527-1.002.743-1.581.496l-1.079-.46c-.217.143-.443.269-.679.375l-.111 1.058c-.068.627-.606 1.101-1.251 1.101zm-1.405-1.5h1.189l.134-1.267c.031-.289.227-.535.502-.63.382-.132.739-.327 1.061-.582.215-.17.507-.209.76-.103l1.29.55.558-.912-1.078-.731c-.246-.167-.37-.464-.316-.756.033-.186.062-.374.062-.569s-.029-.384-.062-.569c-.054-.292.07-.588.315-.755l1.079-.732-.558-.912-1.29.55c-.253.106-.545.067-.76-.103-.321-.254-.678-.45-1.061-.582-.275-.095-.471-.341-.502-.63l-.133-1.267h-1.189l-.134 1.267c-.031.289-.227.535-.502.63-.382.132-.739.327-1.061.582-.215.17-.507.209-.76.103l-1.29-.55-.558.912 1.079.732c.245.167.369.463.315.755-.033.186-.062.374-.062.569s.029.384.062.569c.054.292-.07.589-.316.756l-1.078.731.558.912 1.29-.55c.253-.106.545-.067.76.103.321.255.679.45 1.061.582.275.095.471.341.502.63zm5.637-3.179c0 .001-.001.001 0 0zm-10.083-3.643c-.001 0 0 0 0 0z"/></g><g><path d="m14.84 27h-6.09c-1.517 0-2.75-1.233-2.75-2.75v-12.5c0-1.517 1.233-2.75 2.75-2.75h1.88v1.5h-1.88c-.689 0-1.25.561-1.25 1.25v12.5c0 .689.561 1.25 1.25 1.25h6.09z"/></g><g><path d="m23 14.78h-1.5v-3.03c0-.689-.561-1.25-1.25-1.25h-1.87v-1.5h1.87c1.517 0 2.75 1.233 2.75 2.75z"/></g><g><path d="m17.25 12.5h-5.5c-.965 0-1.75-.785-1.75-1.75v-2c0-.414.336-.75.75-.75h1.104c.328-1.153 1.39-2 2.646-2s2.318.847 2.646 2h1.104c.414 0 .75.336.75.75v2c0 .965-.785 1.75-1.75 1.75zm-5.75-3v1.25c0 .138.112.25.25.25h5.5c.138 0 .25-.112.25-.25v-1.25h-1c-.414 0-.75-.336-.75-.75 0-.689-.561-1.25-1.25-1.25s-1.25.561-1.25 1.25c0 .414-.336.75-.75.75z"/></g><g><path d="m9.75 14h9.5v1.5h-9.5z"/></g><g><path d="m9.75 17h6.84v1.5h-6.84z"/></g><g><path d="m9.75 20h5.09v1.5h-5.09z"/></g><g><path d="m14.125 0h1v2h-1z" fill="#a4afc1"/></g><g><path d="m10.625 3h2v1h-2z" fill="#a4afc1"/></g><g><path d="m16.375 3h2v1h-2z" fill="#a4afc1"/></g><g><path d="m30.98 16.25c-.827 0-1.5-.673-1.5-1.5s.673-1.5 1.5-1.5 1.5.673 1.5 1.5-.672 1.5-1.5 1.5zm0-2c-.275 0-.5.225-.5.5s.225.5.5.5.5-.225.5-.5-.224-.5-.5-.5z" fill="#a4afc1"/></g></svg>